<svg aria-hidden="true" style="position:absolute;width:0;height:0;overflow:hidden" xmlns="http://www.w3.org/2000/svg">
  <defs>
    <symbol id="facebook" viewBox="0 0 32 32">
      <path fill="#fff" style="fill:var(--color1, #fff)" d="M16 0C7.222 0 .082 7.141.082 15.918c0 3.661 1.262 7.208 3.564 10.038a9.611 9.611 0 0 1-3.172 4.138l-.025.018a.74.74 0 0 0 .197 1.294l.005.002c1.063.376 2.289.593 3.566.593h.005c1.932 0 3.821-.503 5.486-1.458 1.845.818 3.996 1.294 6.259 1.294h.037-.002c8.778 0 15.918-7.141 15.918-15.918C31.92 7.143 24.778.001 16.002.001zm0 30.355c-2.105 0-4.134-.443-6.033-1.318a.741.741 0 0 0-.705.046l.003-.002a9.443 9.443 0 0 1-5.036 1.438h-.01c-.595 0-1.19-.055-1.775-.166a11.004 11.004 0 0 0 2.72-4.222l.024-.077a.739.739 0 0 0-.139-.726l.001.001a14.359 14.359 0 0 1-3.488-9.409v-.002c0-7.96 6.476-14.437 14.437-14.437s14.437 6.477 14.437 14.437c0 7.961-6.476 14.438-14.437 14.438z"/>
      <path fill="#fff" style="fill:var(--color1, #fff)" d="M20.258 11.219h-2.093v-.685c0-.056.006-.092.01-.113a.217.217 0 0 1 .038-.003h2a.74.74 0 0 0 .74-.74V6.623a.74.74 0 0 0-.737-.74l-2.758-.011c-3.315 0-4.492 2.411-4.492 4.477v.87h-1.027a.74.74 0 0 0-.74.74v3.566c0 .41.331.741.74.741h1.042v8.172c0 .41.331.741.74.741h3.566a.74.74 0 0 0 .74-.74v-8.173H19.934a.74.74 0 0 0 .737-.67v-.003l.325-3.566a.74.74 0 0 0-.737-.808h-.001zm-1 3.566h-1.97a.741.741 0 0 0-.741.74v8.173h-2.084v-8.173a.74.74 0 0 0-.74-.74H12.68V12.7h1.027a.74.74 0 0 0 .74-.74v-1.611c0-.901.294-2.996 3.008-2.996l2.017.008v1.577h-1.259c-.736 0-1.528.5-1.528 1.597v1.426c0 .409.33.74.74.74h2.022l-.19 2.085z"/>
    </symbol>
    <symbol id="instagram" viewBox="0 0 32 32">
      <path fill="#fff" style="fill:var(--color1, #fff)" d="M31.884 20.892V5.341c0-3.972-2.59-5.11-6.08-5.11H4.896a.356.356 0 0 0-.057.004h.002c-.03.003-.07.008-.088.008-.009 0-.018 0-.032.002C.2.768 0 4.171 0 7.847v16.368c0 3.366.116 7.236 4.601 7.236h14.274c2.71 0 8.022 1.016 10.539-.589 3.4-2.168 2.47-6.459 2.47-9.97zM30.502 6.354c-.012.357-.024.693-.024.99v.259c0 .142-.235.485-.525.764l-1.477 1.426c-.288.28-.474.522-.41.534s.35-.209.639-.49l1.252-1.218c.288-.281.52-.225.52.125s-.227.852-.509 1.124c-.28.272-.41.494-.29.494s.349-.115.509-.258c.161-.141.29.07.29.472v4.37c0 1.032.023 2.077.05 3.127.011.402-.045.978-.146 1.282s-.115.454-.008.346c.106-.109.201.128.211.53.01.394.017.786.024 1.179.006.402-.218.962-.499 1.25l-1.136 1.165c-.282.288-.517.269-.526-.044a19.021 19.021 0 0 1-.01-.564v-.002c0-2.216 1.34-9.222-1.481-10.051a.278.278 0 0 0-.06-.01h-.001c-.034-.003-.095-.014-.137-.019s-.082-.018-.091-.032c-.009-.014-.026-.015-.039-.003-.011.013-.089.023-.172.037a1.458 1.458 0 0 0-.149.033c-2.16.603-1.504 1.914-1.612 3.974a7.484 7.484 0 0 1-.706 2.829l.019-.046c-.169.365-.568.874-.853 1.159l-.386.386c-.285.284-.416.501-.296.479s-.004.2-.302.47c-1.372 1.242-3.17 2.025-5.061 2.258-.4.048-.654-.012-.564-.102s.038-.229-.112-.318c-.149-.086-.422-.019-.616.158-.192.178-.674.309-1.074.26a8.833 8.833 0 0 1-1.96-.459l.062.019a4.172 4.172 0 0 1-.262-.102c-.144-.06-.035-.339.242-.621.277-.28.262-.288-.034-.016v.003c-.296.272-.755.398-1.013.26-.258-.136-.218-.483.079-.755l1.002-.92c.296-.272.842-.378 1.23-.271.47.135 1.016.228 1.579.261l.02.001c1.786.093 3.468-.573 4.754-1.694.303-.264.314-.253.02.02a6.434 6.434 0 0 1-.595.486c-.327.234-.683.45-.766.526s-.052.176.07.222.45-.154.732-.44c1.286-1.31 2.573-2.624 3.856-3.939.282-.288.267-.304-.032-.034l-1.674 1.512c-.298.27-.344.227-.138-.118.397-.66.69-1.43.835-2.252l.006-.04a4.67 4.67 0 0 0 .053-.43c.018-.238.254-.656.546-.934.77-.732 1.514-1.443 2.23-2.127.29-.278.501-.533.466-.568s-.294.164-.583.445c-.713.696-1.421 1.389-2.125 2.08-.288.28-.289.282-.003-.002l2.121-2.088c.286-.282.513-.517.506-.524s-.246.214-.533.496l-2.094 2.045c-.288.282-.526.182-.595-.214a4.816 4.816 0 0 0-.135-.574l.009.034c-.112-.386-.015-.904.279-1.178l1.256-1.17c.295-.274.346-.615.104-.742-.243-.126-.688.012-.984.285-.282.262-.563.525-.846.786-.294.274-.662.31-.839.1s-.094-.587.202-.86l.316-.289c.296-.272.859-.444 1.26-.426 1.024.045 2.101-.082 2.702-.082 1.577 0 2.139-.907 2.321-2.054.064-.397.084-.738.102-.754l.03-.028 1.134-1.054.432-.436c.237-.241.426-.112.414.29zm-.54 2.188c-.39.387-.791.776-1.195 1.162l-.035.033c-.29.277-.294.274-.006-.006.496-.479.896-.868 1.296-1.258l-.066.064c.288-.282.291-.278.006.005zm-3.188 18.661H12.64c-1.066 0-7.845.896-7.845-1.084V14.984c0-1.435 1.043 2.151 1.048 2.252.128 2.474 1.658 4.647 3.446 6.222 2.928 2.578 7.163 2.599 10.639 1.367 1.858-.658 3.37-2.057 4.549-3.586.568-.736.918-1.64 1.242-2.497.126-.334.33-2.531.52-3.874.057-.398.36-.488.536-.127 1.074 2.187.255 7.44.255 8.854 0 .192.187 3.608-.257 3.608zm-14.747-6.267c.24.15.205.478-.09.75l-.839.779c-.294.273-.706.358-.909.176s-.117-.562.177-.837l.704-.656c.294-.275.717-.362.957-.213zm2.939-10.642a5.263 5.263 0 0 1 1.476.005l-.028-.003c6.075 1.026 6.878 10.671-.162 11.038-6.582.344-7.687-9.981-1.286-11.04zm12.02-1.24c-.107.928-1.585.591-2.2.591-.776 0-1.699.185-2.295-.41-.44-.44-.254-1.628-.254-2.176 0-.349-.142-1.51.075-2.195.121-.383.79-.525 1.19-.554 1.142-.084 2.6-.203 3.262.46.44.442.254 1.628.254 2.176 0 .7.046 1.416-.034 2.11zM1.859 3.335c.408-1.032 1.011-1.812 1.886-2.172.372-.153.739-.187.786-.187s-.144.232-.426.519l-1.97 2.008c-.282.288-.424.206-.275-.168zm-.684 7.966-.018-.313c-.023-.402.194-.954.483-1.232 1.376-1.324 2.694-2.59 3.97-3.812.29-.278.526-.518.526-.533s-.235.196-.526.475C4.357 7.088 3.031 8.363 1.636 9.698c-.29.278-.534.363-.544.188 0 .021-.007-.088-.014-.197l-.006-.118c-.016-.91.01-1.819.077-2.726.032-.402.298-.958.579-1.246l3.251-3.324c.28-.288.284-.286.004.003l-.76.787c-.279.29-.277.291.004.004L5.77 1.495c.282-.287.836-.52 1.238-.52h1.325c.402 0 .691.036.646.082s.013.05.131.016c.118-.035.226-.064.238-.076s.35-.022.752-.022h13.741c1.893 0 3.708-.246 5.265.89.324.237.791.706.97 1.066.127.253.216.532.282.828.085.392-.131.942-.426 1.216l-.949.883c-.296.274-.544.252-.554-.048a14.78 14.78 0 0 1-.01-.541v-.004a.637.637 0 0 0-.008-.098v.004c-.007-.051.168-.261.392-.467.222-.206.231-.374.021-.374s-.427.04-.481.09c-.056.05-.258-.216-.598-.434-1.154-.742-3.493-.371-4.566-.371a.549.549 0 0 0-.058.003h.002c-.032.003-.072.009-.088.008l-.033.001c-2.786.324-2.179 3.112-2.179 5.182 0 .522.209.886.546 1.137.322.24.494.468.298.65l-.352.33-.211.207c-.116.114-.382.054-.606-.118-.225-.171-.299-.402-.155-.534s.217-.234.162-.226c-.056.008-.188.106-.297.216s-.472.022-.83-.158a7.739 7.739 0 0 0-2.067-.706l-.05-.008a11.077 11.077 0 0 0-.868-.13 1.416 1.416 0 0 0-.229.003h.006c-.042.005-.402.03-.8.088-3.088.445-5.639 2.384-6.19 5.662a5.133 5.133 0 0 0 .35 2.953c.16.37.258.723.162.818-.096.098-.174.4-.174.679s.074.431.164.337l.164-.168.213-.22c.117-.122.413.04.698.322.062.063.126.124.191.182.296.272.332.694.048.978l-.665.666c-.284.286-.743.284-.995-.03-1.553-1.926-2.234-4.529-2.046-7.056.039-.53-.164-.976-.507-1.26-.31-.256-.654-.351-.654-.414s-.047-.066-.106-.007c-.059.06-.224.101-.369.114a1.398 1.398 0 0 0-.268.051l.01-.003c-1.094.308-1.654.997-1.926 1.866-.12.384-.388.942-.672 1.227l-.84.848c-.282.286-.502.392-.493.238.007-.13.01-.227.01-.282 0-.09-.01-.336-.027-.696-.018-.384.193-.93.474-1.218 1.229-1.262 2.461-2.522 3.694-3.779.282-.288.511-.756.511-1.048s-.235-.302-.524-.022a2755.868 2755.868 0 0 0-4.962 4.806l1.226-1.185c-.288.28-.539.194-.562-.192-.022-.387.194-.928.482-1.208l3.818-3.716c.288-.28.522-.766.522-1.086 0-.318-.232-.348-.518-.064l-3.886 3.856c-.283.287-.534.19-.556-.211zm1.613 10.765-.876.901c-.28.288-.506.232-.506-.128s.226-.886.506-1.174l.968-1.001c.28-.288.502-.209.472.178-.028.386-.285.935-.564 1.224zm.401.953c-.015.29-.252.758-.535 1.042l-.811.817c-.283.286-.498.274-.48-.024s.262-.772.546-1.056c.353-.354.706-.706 1.06-1.058l.126-.123c.07-.069.108.112.094.402zm-1.781-3.398v-1.304l.018-.234c.009-.129.256-.454.55-.73l.768-.723c.293-.276.501-.174.498.228-.002.292.007.589.022.886.02.402-.188.955-.474 1.238l-.865.855c-.286.282-.517.186-.517-.217zm-.088 7.2a8.283 8.283 0 0 1-.018-.545v-.066.003c.002-.402.254-.958.539-1.242l.806-.802c.286-.283.506-.186.514.216.003.162.009.322.018.48.024.402-.152.964-.426 1.258l-.834.89c-.276.292-.573.21-.602-.192zm1.27 2.604a3.742 3.742 0 0 1-.697-.791l-.009-.014c-.218-.338-.093-.87.199-1.146l.768-.722c.293-.276.6-.176.776.185.299.616.776 1.013 1.522 1.013h.035c.018 0-.203.222-.498.498-.326.302-.651.606-.976.91-.294.272-.817.333-1.122.07zm28.018-4.937c-.009.402-.256.954-.546 1.233l-1.754 1.692c-.288.278-.288.504.002.504.288 0 .754-.23 1.04-.514l.673-.672c.285-.285.499-.23.47.122s-.154.732-.272.85c-.12.118-.128.214-.02.214s.191.053.186.119l-.011.12c-.494 4.255-12.158 2.549-14.514 2.549-2.2 0-6.189.582-9.443.152-.398-.053-.49-.348-.208-.634l.059-.059c.282-.286.456-.601.4-.71-.057-.107-.341.024-.638.294l-.408.37c-.299.269-.808.425-1.128.322s-.33-.43-.031-.698l1.198-1.08c.299-.269.532-.538.526-.602s.316-.114.718-.114h19.208c1.754 0 2.224-1.07 2.33-2.349.032-.401.082-.782.15-.85l.126-.122 1.39-1.4c.283-.285.514-.19.512.212-.001.378-.006.746-.016 1.113l.001-.063z"/>
      <path fill="#fff" style="fill:var(--color1, #fff)" d="M5.807 4.264a612.1 612.1 0 0 0-1.808 1.848l-.162.162c-.09.09.072-.064.362-.343l1.525-1.462c.29-.278.538-.554.558-.614s-.194.122-.475.41zm-3.831 9.508c-.836.858 1.437-1.36 3.638-3.506.288-.282.285-.282-.005-.004-1.147 1.1-2.347 2.266-3.634 3.51z"/>
    </symbol>
    <symbol id="location" viewBox="0 0 31 32">
      <path  d="M4.167 1.667c-2.217 2.222-2.084 3.867.798 9.467 1.285 2.533 2.572 4.578 2.793 4.578.266 0 1.508-2.089 2.837-4.578 2.173-4.133 2.35-4.8 2.128-6.578-.354-2.756-2.217-4.4-5.01-4.4-1.729 0-2.261.222-3.547 1.511zm6.385.844c1.552 1.422 1.286 3.645-.843 7.645-1.019 1.867-1.995 3.244-2.172 3.022-1.02-1.067-3.547-6.844-3.547-8 0-3.511 3.857-5.067 6.562-2.667z"/>
      <path  d="M5.852 3.356c-.31.311-.532 1.155-.532 1.911 0 1.689.709 2.444 2.261 2.444 2.172 0 3.236-2 2.172-4.044-.532-.978-3.015-1.2-3.902-.311zm3.193 1.466c.31.844-.887 2.044-1.729 1.733-.931-.356-1.153-1.422-.399-2.133.709-.756 1.773-.533 2.128.4zm11.128 2.622c-3.192 1.378-5.187 5.645-4.212 8.889.488 1.6 6.961 11.378 7.538 11.378.665 0 7.05-9.778 7.493-11.467.886-3.289-.843-7.155-3.991-8.755-1.552-.8-5.054-.845-6.828-.045zM27.001 9c2.084 1.467 2.926 3.067 2.926 5.511 0 2.133-.266 2.667-3.015 6.622-1.685 2.4-3.192 4.356-3.37 4.356-.709 0-6.296-8.489-6.562-9.956-.488-3.022 1.64-6.489 4.566-7.378 1.685-.533 4.123-.133 5.453.844z"/>
      <path  d="M21.902 11c-2.616 1.156-3.015 4.711-.754 6.489 3.237 2.533 7.626-1.156 5.719-4.8-.399-.756-1.285-1.556-2.084-1.822s-1.419-.489-1.463-.489c-.044.045-.665.311-1.419.622zm3.37 1.6c1.064 1.067 1.109 2.133.178 3.467-1.286 1.867-4.611.8-4.611-1.556 0-1.244 1.463-2.8 2.66-2.8.487 0 1.285.4 1.773.889zM1.02 19.044c-1.197.845-1.374 2.933-.31 3.822.532.444 2.616.711 7.005.844l6.252.222v1.111c0 1.067-.089 1.111-3.547 1.245-3.813.133-5.099.8-5.099 2.533 0 .489.266 1.333.621 1.822.576.756 1.33.845 9.31.978 7.627.133 8.69.044 8.69-.533 0-.622-1.064-.711-8.069-.711-4.478 0-8.38-.178-8.69-.4-.355-.222-.532-.755-.443-1.2.132-.711.665-.889 3.812-1.067 3.947-.222 4.966-.844 4.966-2.889s-1.153-2.4-7.759-2.533l-6.207-.133v-1.111c0-1.067.133-1.111 3.325-1.333 1.818-.133 3.325-.444 3.325-.667 0-.8-6.074-.8-7.182 0z"/>
    </symbol>
    <symbol id="logo" viewBox="0 0 65 32">
      <path d="M32.063.67c-.297.219-.863.613-1.254.875-.783.536-1.228 1.148-1.228 1.695 0 .46.513 1.104.904 1.148.283.033.283.033.054.601a7.703 7.703 0 0 0-.337.962l-.081.394-.471-.175c-.365-.143-.446-.219-.378-.394.271-.645-.094-1.246-.984-1.575-.849-.328-1.794-.295-3.29.099-.674.175-1.348.328-1.496.328-.337 0-.324.087.04.404.162.143.485.536.715.875.972 1.476 2.697 1.772 4.126.721.513-.371.54-.382.863-.207.189.099.527.383.742.634l.419.46-.581.481a9.72 9.72 0 0 1-1.186.819l-.607.35-4.274.022c-3.56.021-4.612.065-6.203.262a44.25 44.25 0 0 1-2.872.262c-1.362.034-2.009.209-2.441.656-.203.219-.621.481-.944.591-.417.152-.701.36-.998.753-.431.58-1.105.995-1.914 1.214-.675.186-1.093.47-1.511 1.038-.459.646-.431.985.121 1.707.607.754.593.875-.014.448-.27-.197-.553-.328-.633-.306s-.337.329-.553.7c-.23.361-.58.809-.783 1.006-.404.383-.431.526-.378 1.936.015.721-.026.973-.256 1.345a3 3 0 0 0-.373.92l-.004.02-.08.492H5.54l.095-.962c.053-.526.148-1.268.229-1.662.148-.776.755-2.514.931-2.668.068-.055.404.077.782.305.566.339 1.484.722 1.699.722.041 0-.27-.558-.66-1.235-.404-.667-.742-1.324-.742-1.433 0-.568 1.713-2.11 3.345-3.006 1.025-.558 2.319-1.039 2.468-.918.053.044.417.579.795 1.18.634 1.017.675 1.061.593.601-.041-.273-.229-.83-.404-1.246-.175-.427-.283-.787-.242-.819.04-.044.877-.066 1.847-.066 1.389 0 1.941.044 2.521.207 1.888.514 3.116 1.148 4.518 2.296 1.078.885 2.185 2.154 2.306 2.657.094.394-.216 1.038-.945 1.903-.256.317-.459.59-.431.612s.499-.087 1.066-.241 1.105-.273 1.227-.273c.136 0 .284.197.418.58.297.819.607 2.34.607 2.941v.524h1.255l-.095-.689a30.589 30.589 0 0 1-.186-1.498l-.015-.185c-.081-.831-.189-1.137-.607-1.826-.27-.459-.553-.831-.634-.831-.068 0-.35.078-.621.165-.782.262-.809.196-.135-.362.553-.459.634-.579.634-.983 0-.601-.526-1.444-1.052-1.695-.229-.098-.633-.448-.916-.766a19.052 19.052 0 0 0-1.011-1.016c-.283-.252-.607-.612-.715-.798-.27-.415-.675-.591-1.968-.82-.594-.109-1.201-.305-1.457-.469-.553-.339-.498-.405.189-.209.297.078.984.186 1.537.23s1.268.12 1.579.175c.323.055 1.685.11 3.033.121 1.39 0 2.266.044 1.997.087-.257.044-1.052.164-1.753.262-2.36.339-2.954.623-2.292 1.105.148.109.459.436.688.72.229.296.634.646.904.776 1.119.559 1.833 1.542 1.833 2.515l-.013.623.742.077c.689.065 1.712.021 2.859-.11.256-.033.027.066-.526.207-.505.143-1.117.266-1.744.344l-.063.006c-.647.054-.782.098-.715.241.041.099.189.46.351.809.148.35.337 1.137.404 1.749.081.613.175 1.324.215 1.575l.081.47h27.348l.135-.284c.242-.514.148-1.936-.189-2.985-.175-.547-.364-1.04-.417-1.105-.042-.054-.419-.109-.824-.109-.403 0-.727-.044-.727-.098 0-.099 1.51-.558 1.834-.558.081 0 .189.262.242.623.054.35.242 1.105.431 1.673.297.897.337 1.159.257 1.936l-.095.908h1.335l.094-.634c.054-.404.014-1.028-.121-1.673-.108-.569-.202-1.28-.202-1.575 0-.404-.122-.766-.472-1.345-.256-.436-.553-.819-.661-.853-.094-.032-.404.023-.688.111-.809.284-.822.207-.068-.437.675-.58.702-.623.621-1.05-.135-.645-.431-1.06-1.28-1.738-1.105-.897-1.956-1.728-2.293-2.253-.31-.514-.621-.688-1.429-.82-1.901-.295-2.063-.349-2.481-.819-.498-.558-1.038-.679-1.833-.427-.446.142-.743.153-1.619.077a23.717 23.717 0 0 1-1.565-.192l.136.018c-.242-.055-.417-.012-.58.109-.202.175-.553.175-4.058.11-2.86-.066-3.844-.12-3.898-.219-.026-.077.081-.612.271-1.202.404-1.323.404-1.596.027-1.881-.593-.436-.863-.492-1.753-.36-1.416.207-2.172.502-3.128 1.213-1.039.776-1.105.733-.904-.481.202-1.192.324-1.389.836-1.389.593 0 1.322-.305 1.605-.688.418-.558.445-.974.068-1.881-.189-.469-.337-1.038-.337-1.267 0-.536-.175-.536-.89-.012zm.148.919c-.054.142-.297.524-.539.852s-.472.7-.513.82c-.053.197-.068.197-.081-.033-.014-.328.931-1.881 1.16-1.881.027 0 .014.11-.027.241zm-5.164 3.892c.931.285.957.296.512.329-.283.021-.742-.066-1.213-.23-.001-.017-.358-.15-.718-.28l-.362-.114c-.701-.262.783-.011 1.78.295zm8.522.087c.391.121.081.263-.566.263-.351 0-.863.055-1.147.12-.863.197-.889.044-.026-.207.836-.23 1.375-.284 1.74-.175zm.35.864c0 .132-.175.165-.795.165-1.025 0-1.497-.132-.823-.23.931-.143 1.619-.11 1.619.065zm-3.924.624c-.391.591-.863 1.082-1.295 1.356-.256.153-.498.262-.526.23-.068-.044 1.808-1.826 1.929-1.826.027 0-.027.11-.108.24zm7.916 2.733c.054.054.068.11.027.142-.148.12-9.453.209-9.372.087.041-.054 1.282-.163 2.751-.239s2.751-.143 2.859-.153c.459-.055 3.641.098 3.735.164zm9.629.558c1.968.612 3.681 1.749 5.165 3.378.202.23.364.436.364.47 0 .021-.593-.416-1.308-.995l-1.308-1.04-2.697.012c-4.693.011-4.585-.055.593-.416l1.146-.077-1.295-.633c-1.227-.58-1.362-.623-2.158-.623-.472 0-1.646-.066-2.616-.132l-1.753-.142 1.011-.054c2.023-.11 4.059-.012 4.854.251zm-12.272.94c-.337.164-1.632.328-2.698.339-.553.01-1.59.065-2.292.119s-1.982.131-2.831.153l-1.552.044 1.241-.207c.689-.11 1.322-.241 1.416-.296.095-.044 1.579-.12 3.278-.153a234.06 234.06 0 0 0 3.371-.076c.216-.012.23 0 .068.077zm6.797 2.57c.364.087 1.551.196 2.629.239 1.929.078 3.237.23 2.172.252-.688.021-2.118.305-2.496.514-.188.097-.553.459-.809.809-.553.732-1.038.973-2.589 1.268-.916.185-.998.185-1.484 0-.417-.153-.836-.175-2.265-.153-1.699.033-1.767.021-2.359-.262-1.146-.559-1.794-.755-2.751-.81-.849-.054-1.416-.153-.849-.153.35 0 2.347-.591 3.33-.984 1.12-.459 2.185-.765 3.035-.875.957-.131 3.654-.044 4.436.153zm8.508 4.909c.472.12.216.142-2.023.185-1.402.033-2.804.033-3.101 0-.472-.054-.378-.077.674-.197.675-.077 1.362-.152 1.551-.175.526-.066 2.306.054 2.899.186zm-14.671 1.399c.324.098.351.131.148.218-.417.186-2.158.241-2.804.087l-.607-.142.971-.066c.539-.044 1.025-.098 1.066-.142.148-.11.795-.087 1.227.044z"/>
      <path d="M38.684 14.195c-.728.284-1.996.984-2.144 1.181-.121.152-.081.229.188.404.513.328 1.241.448 2.212.371.621-.054 1.133-.022 1.834.12 1.079.219 1.74.175 2.846-.153.944-.295 1.51-.711 1.389-1.028-.135-.371-.337-.535-.944-.754-.472-.164-.877-.197-2.495-.175-1.066.011-2.063-.011-2.211-.054-.149-.033-.446 0-.675.087zm5.327.405c1.227.514.999.918-.742 1.345-1.267.317-1.658.328-2.724.11-.418-.087-1.295-.165-1.928-.165-.823 0-1.241-.044-1.456-.175-.378-.218-.378-.459.014-.58.161-.054.633-.207 1.038-.338.849-.284 1.929-.404 3.844-.427 1.173-.011 1.443.022 1.955.23z"/>
      <path d="M40.154 14.906c-1.025.087-1.646.283-1.443.447.256.207 2.224.317 3.398.207 1.537-.164 1.996-.382 1.376-.655-.297-.12-1.862-.12-3.331 0zm3.183.208c0 .097-1.429.338-1.997.338-.161 0-.754-.066-1.334-.132-.999-.131-1.025-.142-.513-.207.849-.11 3.844-.11 3.844 0zm-19.824-3.883c.242.206.297.206.701.043l.446-.162-.702-.044c-.701-.044-.701-.044-.445.163zm-8.535.362c-.216.175-.027.209 1.16.209 1.443 0 2.023.153 3.937 1.038 1.658.777 2.306 1.236 3.749 2.69 1.348 1.378 1.808 1.52.539.175-1.604-1.705-2.332-2.24-4.288-3.181-1.537-.733-2.589-1.006-3.897-1.006-.606 0-1.159.032-1.2.076zm-2.671.766c-.701.295-1.551.699-1.874.908-.674.436-2.197 2.044-2.076 2.208.094.12.081.131.633-.481 1.079-1.225 2.185-1.969 3.79-2.537.957-.339 1.227-.503.931-.579-.068-.022-.701.196-1.403.481z"/>
      <path d="M15.152 12.599c0 .054.351.131.783.175 1.834.175 3.776.754 5.016 1.509 1.254.766 2.872 2.154 3.223 2.777.297.535.553.744.553.47 0-.394-.849-1.367-2.009-2.296-1.484-1.192-2.185-1.596-3.614-2.077-1.552-.525-3.951-.864-3.951-.558zm-1.644.284c-1.847.612-1.955.678-4.477 3.084-.203.208-.337.404-.297.448.108.077 1.578-1.181 2.265-1.925.337-.361.728-.579 1.847-1.038.783-.306 1.457-.58 1.484-.591.014-.01.014-.065 0-.131-.027-.054-.391.011-.822.153z"/>
      <path d="M16.097 13.485c.566.044 1.523.273 2.697.656l1.821.579 1.227.995c.742.612 1.361 1.235 1.605 1.618.216.339.418.601.445.579.162-.12-1.052-1.574-1.902-2.274-1.052-.885-1.605-1.148-3.79-1.826-1.133-.339-1.59-.436-2.211-.427l-.769.022.877.077zm-2.077.164c-.849.241-2.306 1.127-3.667 2.22-.701.558-1.267 1.061-1.267 1.104 0 .054.498-.328 1.119-.842 1.375-1.148 2.967-2.132 3.869-2.373.366-.099.675-.197.675-.23 0-.066-.162-.044-.727.12z"/>
      <path d="M13.993 14.676c-.997.207-1.793.688-2.709 1.64-.931.962-1.646 1.913-1.659 2.187 0 .087.189-.142.404-.514.607-.983 2.104-2.415 2.954-2.832 2.103-1.016 5.893-.284 8.252 1.608 1.079.875 1.591 1.574 1.942 2.7.175.547.189.569.135.165-.297-1.99-2.805-4.079-5.731-4.767-.849-.207-2.981-.317-3.588-.186z"/>
      <path d="M14.613 15.255c-1.038.121-2.306.722-3.034 1.444-.526.525-1.186 1.552-1.402 2.197-.242.721-.148.82.108.11.54-1.432 1.228-2.274 2.454-2.974.999-.558 1.524-.688 2.805-.7.877-.01 1.065.033 2.603.613.903.339 1.901.766 2.211.941 1.052.579 1.686 1.388 2.023 2.547.189.655.189.655.121.12-.148-1.127-1.146-2.352-2.414-2.953-1.052-.492-3.52-1.344-4.059-1.389-.297-.032-.931-.01-1.416.045z"/>
      <path d="M14.02 16.393c-.931.23-2.036 1.159-2.683 2.23-.27.449-.526.995-.566 1.202-.054.263 0 .197.175-.229.581-1.4 1.687-2.559 2.832-2.974 1.322-.47 3.29-.306 5.232.427 1.416.535 2.724 1.978 3.021 3.323l.121.601-.054-.591c-.081-.831-.727-1.87-1.59-2.57-.863-.698-1.444-.95-2.994-1.322-1.335-.318-2.494-.339-3.493-.099zM7.008 17.41c-.324.427-.877 4.635-.633 4.766.094.045.147-.119.147-.459 0-.995.472-3.63.756-4.22.08-.197-.149-.262-.271-.087z"/>
      <path d="M14.506 17.431c-1.254.197-2.63 1.258-3.115 2.395-.337.786-.527 2.23-.324 2.328.081.044.162-.252.215-.776.109-1.258.513-2.023 1.497-2.822.916-.732 1.484-.918 2.872-.918.931 0 3.668.558 4.302.886.256.12.621.436.795.699.378.514.743 1.707.743 2.427 0 .252.067.493.135.525.188.099.161-.71-.054-1.716-.391-1.749-1.105-2.274-3.817-2.809-1.794-.35-2.252-.383-3.249-.219zm-7.161.777c-.216 1.016-.351 3.87-.189 3.947.08.044.162-.547.229-1.607.041-.93.148-1.946.216-2.263.08-.339.094-.613.014-.679-.068-.054-.176.198-.27.601zm16.574-.034c0 .065.053.142.135.175s.094-.012.053-.099c-.094-.194-.188-.227-.188-.076z"/>
      <path d="M13.697 18.503a3.535 3.535 0 0 0-1.713 2.636c-.054.427-.041.415.121-.165.107-.361.202-.711.202-.776.027-.328 1.12-1.432 1.646-1.673.485-.23.674-.252 1.457-.197 1.038.077 2.899.525 3.843.929.485.219.727.416.904.733.135.241.256.361.256.273 0-.285-.499-.831-.958-1.072-.768-.372-3.074-.919-4.166-.974-.972-.054-1.039-.044-1.591.284zm-5.664.009c0 .152.027.206.068.13a.451.451 0 0 0-.001-.275l.001.003c-.041-.064-.068-.01-.068.142z"/>
      <path d="M14.951 18.831c-.904.175-.957.207-1.375.721-.242.295-.446.59-.446.655 0 .054.204-.153.432-.47.512-.666.984-.831 2.332-.842.634 0 .985.066 1.591.317 1.47.613 2.131 1.235 2.374 2.286.081.305.121.361.135.175.027-.47-.404-1.301-.863-1.683-.58-.46-1.808-1.028-2.603-1.193-.526-.119-.795-.109-1.578.033zm11.328.088c.04.175.12.983.161 1.804.041.831.121 1.509.189 1.509.175 0 .148-2.253-.027-2.985-.094-.339-.216-.623-.297-.623-.068 0-.081.132-.027.296zm-16.776-.013c0 .119.04.152.081.065.041-.076.027-.174-.014-.206-.04-.044-.081.021-.068.141zm15.629-.152c0 .022.095.306.203.634.107.339.202 1.083.202 1.716 0 .755.054 1.127.148 1.127.109 0 .136-.404.095-1.399-.068-1.323-.257-2.099-.527-2.099-.068 0-.121.011-.121.022zM7.925 20.591c0 .929.027 1.312.04.842.027-.46.027-1.225 0-1.695-.013-.459-.04-.077-.04.853zm1.457-1.204c0 .152.026.206.068.13a.451.451 0 0 0-.001-.275l.001.003c-.042-.064-.068-.01-.068.142z"/>
      <path d="M15.759 19.433c-.471.164-1.375.941-1.564 1.344-.215.46-.053.394.216-.087.27-.47 1.146-1.115 1.645-1.225.877-.164 2.401.503 2.872 1.28.148.251.27.382.27.305 0-.535-1.092-1.367-2.117-1.617-.755-.186-.809-.186-1.322 0zm8.794.229c.039.241.093.459.12.48.109.099.027-.491-.081-.698-.095-.153-.108-.087-.041.218zM9.948 20.919c0 .689.014.973.04.623a9.763 9.763 0 0 0 0-1.257c-.026-.339-.04-.054-.04.634zm-.675.056c0 .655.014.917.041.568s.027-.886 0-1.202c-.027-.318-.041-.033-.041.633z"/>
      <path d="M15.855 20.001c-.337.186-1.16 1.181-1.295 1.552-.041.131-.122.339-.162.46s-.014.218.068.218c.081 0 .202-.186.269-.415.148-.405.944-1.411 1.268-1.575.081-.044.364-.087.606-.087.742 0 1.915 1.137 1.915 1.859 0 .119.068.218.148.218.242 0 .041-.721-.35-1.268-.419-.579-1.309-1.137-1.808-1.137-.203 0-.498.076-.66.175zm6.755.753c0 .361.026.492.053.295a2.723 2.723 0 0 0-.001-.667l.001.013c-.027-.165-.053 0-.053.36zm.823.439c0 .601.014.831.041.514a7.1 7.1 0 0 0-.002-1.119l.002.025c-.027-.284-.041-.021-.041.58zm-12.825-.383c0 .328.027.469.054.295a2.161 2.161 0 0 0-.002-.613l.001.012c-.027-.163-.054-.021-.054.306zm14.16-.165c0 .241.026.329.053.186a1.146 1.146 0 0 0-.001-.444l.001.007c-.04-.098-.068.011-.053.251zm-4.329.165c0 .207.027.295.068.185a.908.908 0 0 0-.001-.388l.001.006c-.041-.098-.068-.011-.068.197zm-7.552.163c0 .173.027.238.068.13a.644.644 0 0 0-.001-.331l.001.005c-.041-.065-.068.012-.068.196z"/>
      <path d="M16.124 21.029c-.31.175-.648.502-.769.721-.242.47-.242.481-.068.481.068 0 .216-.165.31-.361.109-.197.446-.492.756-.667l.565-.317.27.219c.148.12.31.427.351.678.108.623.364.579.27-.055-.068-.524-.512-1.028-.904-1.028-.121 0-.485.143-.782.329zm6.082.6c0 .296.026.415.053.241a1.786 1.786 0 0 0-.002-.556l.001.01c-.027-.131-.053 0-.053.305zm2.696.055c0 .328.028.469.054.295a2.161 2.161 0 0 0-.002-.613l.001.012c-.026-.163-.053-.021-.053.306zm-10.949-.263c0 .119.041.152.081.065.041-.076.027-.173-.014-.206-.04-.044-.081.021-.068.141zm5.286.318c0 .295.027.415.054.241a1.786 1.786 0 0 0-.002-.556l.001.01c-.027-.131-.054 0-.054.305zm1.348-.055c0 .273.028.382.054.241a1.53 1.53 0 0 0-.001-.501l.001.009c-.026-.131-.053-.022-.053.251zm-7.821.055c0 .241.027.328.054.186a1.146 1.146 0 0 0-.001-.444l.001.007c-.041-.099-.068.01-.054.25z"/>
      <path d="M16.245 21.641c-.418.436-.337.535.094.131.486-.427.823-.361.849.153.027.338.027.349.081.054.121-.623-.539-.83-1.025-.339zm-4.436.261c0 .152.027.207.068.13a.445.445 0 0 0-.001-.274l.001.003c-.041-.065-.068-.011-.068.141zm2.023.054c0 .175.026.239.068.13a.642.642 0 0 0-.001-.329l.001.005c-.042-.065-.068.011-.068.195zm8.886.012c0 .119.041.152.081.065.041-.076.027-.174-.014-.206-.04-.044-.081.021-.067.141zM5.907 30.885H3.319v-.488l.717-.066v-5.723l-.717-.076v-.487h4.899c.239 0 .359.097.359.291v1.273h-.613l-.081-1.048H4.96v2.687h3.085v.515H4.96v2.567l.947.076v.477zm4.044-3.42c0-1.137.297-2.01.889-2.623.601-.618 1.425-.927 2.473-.927 1.055 0 1.883.309 2.484.927.601.613.901 1.487.901 2.623s-.301 2.014-.902 2.633c-.6.612-1.428.918-2.483.918-1.047 0-1.871-.306-2.473-.918-.592-.619-.889-1.496-.889-2.633zm5.823 0c0-.955-.22-1.689-.659-2.201-.431-.519-1.032-.778-1.802-.778-.762 0-1.363.259-1.803.778-.431.512-.647 1.246-.647 2.201s.215 1.692.647 2.211c.439.512 1.04.768 1.803.768.77 0 1.371-.256 1.803-.768.438-.519.658-1.255.658-2.211zm4.784.075h.682c.601 0 1.051-.126 1.352-.375.301-.256.451-.621.451-1.096 0-.481-.15-.853-.451-1.115s-.751-.393-1.352-.393h-1.352v5.77l1.006.066v.487h-2.646v-.487l.717-.066v-5.723l-.717-.076v-.487h2.992c.878 0 1.549.175 2.01.525s.693.849.693 1.499c0 .993-.527 1.617-1.583 1.873.385.143.662.378.832.702l.901 1.687.727.065v.487H23.7c-.201 0-.339-.072-.417-.215l-1.005-1.92c-.145-.281-.32-.465-.52-.553-.192-.094-.508-.141-.947-.141h-.254v-.516zm5.395-3.494h5.096c.231 0 .346.097.346.291v1.245h-.601l-.081-1.02h-3.119v2.594h3.281v.516h-3.281v2.707h3.223l.093-.993h.601v1.208c0 .194-.12.291-.359.291h-5.2v-.488l.717-.066v-5.723l-.717-.076v-.487zm11.726.89c-.739-.301-1.394-.45-1.964-.45-.57 0-1.006.104-1.306.31a.948.948 0 0 0-.44.799v.026-.001c0 .342.147.626.439.851s.647.409 1.063.553c.417.138.828.284 1.236.44.417.156.771.381 1.063.675.293.287.439.64.439 1.058 0 .569-.242 1.015-.727 1.34-.485.318-1.109.478-1.871.478-.763 0-1.383-.166-1.861-.497-.477-.337-.797-.806-.959-1.406l.809-.159c.316.993.963 1.489 1.941 1.489.555 0 .982-.11 1.282-.328.308-.218.463-.524.463-.918 0-.436-.281-.786-.844-1.049a7.26 7.26 0 0 0-.762-.301l-.058-.017a38.19 38.19 0 0 1-.911-.337 6.688 6.688 0 0 1-.864-.429l.031.017a1.846 1.846 0 0 1-.597-.582l-.004-.007a1.53 1.53 0 0 1-.231-.812v-.033.002c0-.55.236-.975.705-1.274.478-.305 1.09-.459 1.838-.459.754 0 1.548.153 2.38.459l-.289.562zm1.548-.89h5.292c.239 0 .359.097.359.291v1.273h-.601l-.093-1.048h-1.848v5.77l1.039.066v.487h-3.004v-.487l1.041-.066v-5.77h-1.849l-.092 1.048h-.601v-1.273c0-.194.12-.291.359-.291zm6.708 0h5.095c.232 0 .347.097.347.291v1.245h-.601l-.081-1.02h-3.12v2.594h3.281v.516h-3.281v2.707h3.223l.092-.993h.601v1.208c0 .194-.119.291-.359.291h-5.199v-.488l.717-.066v-5.723l-.718-.076v-.487zm9.555 3.494h.682c.601 0 1.051-.126 1.352-.375.301-.256.451-.621.451-1.096 0-.481-.15-.853-.451-1.115s-.752-.393-1.352-.393H54.82v5.77l1.005.066v.487H53.18v-.487l.717-.066v-5.723l-.717-.076v-.487h2.992c.878 0 1.548.175 2.01.525s.693.849.693 1.499c0 .993-.528 1.617-1.583 1.873.385.143.662.378.831.702l.902 1.687.727.065v.487h-1.12c-.201 0-.339-.072-.417-.215l-1.004-1.92c-.145-.281-.32-.465-.52-.553-.193-.094-.508-.141-.947-.141h-.254v-.516z"/>
      <path d="M5.907 30.885v.669h.825v-.669h-.825zm-2.588 0h-.825v.669h.825v-.669zm0-.488-.092-.665-.733.068v.597h.825zm.717-.066.092.665.733-.068v-.597h-.825zm0-5.723h.824v-.589l-.719-.076-.107.664zm-.717-.076h-.825v.589l.72.076.106-.664zm0-.486v-.669h-.825v.669h.825zm5.257 1.564v.669h.825v-.669h-.824zm-.612 0-.824.042.048.628h.776v-.669zm-.081-1.049.824-.042-.049-.627h-.776v.669zm-2.923 0v-.669h-.825v.669h.824zm0 2.688h-.825v.669h.824v-.669zm3.085 0h.825v-.669h-.824v.669zm0 .515v.669h.825v-.669h-.824zm-3.085 0v-.669h-.825v.669h.824zm0 2.567h-.825v.607l.745.059.08-.666zm.947.076h.825V29.8l-.745-.059-.08.666zm0-.192H3.319v1.338h2.588v-1.338zm-1.763.669v-.487h-1.65v.487h1.65zm-.733.178.718-.066-.186-1.329-.716.065.184 1.33zm1.45-.731v-5.723H3.21v5.723h1.65zm-.719-6.387-.718-.075-.21 1.328.717.075.211-1.328zm.002.588v-.487h-1.65v.487h1.65zm-.825.183h4.899v-1.338H3.319v1.338zm4.899 0a.538.538 0 0 1-.316-.124l.001.001c-.149-.121-.152-.249-.152-.255h1.65v-.011a.866.866 0 0 0-.329-.679l-.002-.001c-.27-.218-.606-.269-.853-.269v1.338zm-.467-.378v1.273h1.65v-1.273h-1.65zm.825.604h-.612v1.338h.612v-1.338zm.211.627-.081-1.049-1.647.084.08 1.048 1.649-.083zm-.904-1.677H4.96v1.338h2.923v-1.338zm-3.748.67v2.689h1.65v-2.689h-1.65zm.824 3.358h3.086v-1.338H4.96v1.338zm2.26-.67v.515h1.65v-.515h-1.65zm.826-.154H4.96v1.338h3.085v-1.338zm-3.91.669v2.567h1.65v-2.567h-1.65zm.745 3.233.947.075.161-1.331-.947-.076-.161 1.332zm.202-.591v.478h1.65v-.477h-1.65zm5.758-5.564-.648-.414-.001.001.65.413zm4.957 0-.649.414.003.003.646-.417zm0 5.255.645.417.003-.003-.648-.414zm-4.957 0-.652.41.006.007.646-.417zm4.276-4.833-.685.374.007.008.678-.382zm-3.606 0-.68-.378h-.002l.682.378zm0 4.412-.684.374.006.008.679-.382zm3.606 0zm-4.34-2.211c0-1.053.276-1.759.713-2.209l-1.297-.827c-.75.773-1.067 1.816-1.067 3.036h1.651zm.713-2.209c.431-.443 1.007-.672 1.823-.672v-1.338c-1.276 0-2.349.389-3.12 1.183l1.296.827zm1.823-.672c.828 0 1.407.231 1.837.672l1.296-.828c-.772-.795-1.849-1.183-3.132-1.183v1.338zm1.84.675c.442.45.721 1.154.721 2.206h1.65c0-1.222-.321-2.266-1.081-3.039l-1.291.833zm.721 2.206c0 1.051-.279 1.761-.724 2.219l1.296.828c.756-.779 1.078-1.824 1.078-3.047h-1.649zm-.721 2.215c-.429.436-1.008.665-1.839.665v1.338c1.28 0 2.356-.382 3.129-1.169l-1.291-.834zm-1.839.666c-.821 0-1.397-.228-1.827-.665l-1.292.834c.773.785 1.844 1.17 3.119 1.17v-1.338zm-1.821-.66c-.439-.458-.716-1.169-.716-2.221H9.125c0 1.22.316 2.264 1.063 3.042l1.303-.821zm5.107-2.22c0-1.025-.233-1.915-.806-2.584l-1.356.764c.304.355.511.933.511 1.819h1.65zm-.8-2.577c-.585-.702-1.441-1.073-2.486-1.073v1.338c.495 0 .84.148 1.118.483l1.368-.749zm-2.486-1.072c-1.04 0-1.893.371-2.482 1.068l1.361.758c.288-.34.637-.488 1.122-.488v-1.338zm-2.484 1.069c-.562.669-.79 1.556-.79 2.579h1.65c0-.889.204-1.469.504-1.825l-1.364-.754zm-.791 2.58c0 1.022.228 1.91.788 2.584l1.367-.749c-.302-.364-.504-.948-.504-1.837h-1.651zm.795 2.592c.591.69 1.444 1.055 2.479 1.055v-1.338c-.49 0-.839-.146-1.125-.481l-1.356.764zm2.48 1.055c1.04 0 1.898-.364 2.484-1.06l-1.363-.754c-.276.328-.621.476-1.121.476v1.338zm2.482-1.058c.571-.674.804-1.565.804-2.589h-1.65c0 .885-.207 1.468-.514 1.831l1.361.758zm4.763-2.516v-.669h-.825v.669h.825zm2.033-.374.591.467.007-.006-.598-.462zm-2.704-2.604v-.669h-.825v.669h.824zm0 5.77h-.825v.618l.759.049.066-.667zm1.006.066h.824v-.618l-.758-.049-.067.666zm0 .487v.669h.824v-.669h-.824zm-2.647 0h-.824v.669h.824v-.669zm0-.487-.092-.665-.732.068v.597h.824zm.717-.066.092.665.733-.068v-.597h-.825zm0-5.723h.824v-.589l-.719-.076-.107.664zm-.717-.076h-.824v.589l.72.076.106-.664zm0-.486v-.669h-.824v.669h.824zm5.003.524zm-.889 3.373-.237-.641-2.095.508 1.986.741.345-.608zm.831.702-.759.262.003.005.756-.267zm.902 1.687-.757.266.19.356.476.043.091-.665zm.727.065h.826v-.599l-.735-.066-.091.665zm0 .487v.669h.826v-.669h-.826zm-1.536-.215-.76.262.003.005.756-.267zm-1.005-1.92-.76.26v.001l.76-.262zm-.52-.553-.425.573.017.009.017.007.391-.589zm-1.201-.141h-.825v.669h.825v-.669zm0 .154h.682v-1.338h-.682v1.338zm.681 0c.733 0 1.434-.154 1.942-.577L22 26.697c-.092.078-.293.173-.761.173v1.338zm1.949-.582c.491-.419.679-.972.679-1.557h-1.651c0 .363-.113.541-.223.634l1.197.923zm.679-1.558c0-.591-.186-1.147-.671-1.571l-1.21.912c.116.101.231.288.231.659h1.65zm-.671-1.571c-.507-.442-1.212-.607-1.957-.607v1.338c.458 0 .653.098.747.18l1.21-.912zm-1.957-.607h-1.352v1.338h1.352v-1.338zm-2.177.67v5.771h1.65v-5.77h-1.65zm.76 6.438 1.005.065.133-1.334-1.006-.065-.132 1.333zm.245-.602v.487h1.651v-.487h-1.651zm.826-.182h-2.647v1.338h2.647v-1.338zm-1.821.669v-.487h-1.65v.487h1.65zm-.733.178.718-.066-.186-1.329-.717.065.185 1.33zm1.45-.731v-5.723h-1.65v5.723h1.65zm-.72-6.387-.718-.075-.21 1.328.717.075.211-1.328zm.003.588v-.487h-1.65v.487h1.65zm-.825.183h2.992v-1.338h-2.992v1.338zm2.992 0c.751 0 1.189.149 1.447.345l1.127-.979c-.666-.503-1.568-.704-2.574-.704v1.338zm1.447.345c.253.191.431.493.431 1.009h1.65c0-.782-.284-1.479-.955-1.988l-1.127.979zm.432 1.008c0 .403-.107.665-.252.836-.138.165-.362.305-.742.398l.473 1.282c.674-.164 1.242-.463 1.631-.923.383-.454.54-1.002.54-1.591h-1.65zm-1.103 2.483a.72.72 0 0 1 .415.351l.002.004 1.52-.522c-.247-.473-.669-.834-1.247-1.049l-.689 1.216zm.42.361.901 1.686 1.515-.533-.902-1.685-1.514.532zm1.567 2.084.727.066.183-1.33-.728-.066-.182 1.33zm-.006-.599v.487h1.65v-.487h-1.651zm.824-.182H23.7v1.338h1.12v-1.338zm-1.12 0a.434.434 0 0 1 .339.186l.001.001-1.513.533c.092.173.242.339.473.459.229.118.475.159.698.159v-1.338zm.344.192-1.005-1.92-1.52.524 1.005 1.92 1.52-.524zm-1.005-1.919c-.175-.337-.445-.688-.888-.881l-.783 1.178c-.026-.012-.018-.015.015.02a.928.928 0 0 1 .133.198l.002.005 1.52-.521zm-.855-.866c-.394-.192-.902-.236-1.372-.236v1.338c.186 0 .323.01.417.024.1.015.123.029.107.02l.849-1.147zm-1.372-.236h-.254v1.338h.254v-1.338zm.572.669v-.516h-1.651v.516h1.65zm4.569-4.009v-.669h-.824v.669h.824zm5.442 1.536v.669h.825v-.669h-.825zm-.601 0-.823.044.049.626h.774v-.669zm-.081-1.021.824-.043-.05-.626h-.774v.669zm-3.119 0v-.669h-.825v.669h.825zm0 2.594h-.825v.669h.825v-.669zm3.281 0h.824v-.669h-.824v.669zm0 .516v.669h.824v-.669h-.824zm-3.281 0v-.669h-.825v.669h.825zm0 2.708h-.825v.669h.825v-.669zm3.223 0v.669h.766l.057-.619-.823-.05zm.093-.993v-.669h-.766l-.058.619.824.05zm.601 0h.824v-.669h-.824v.669zm-5.558 1.498h-.824v.669h.824v-.669zm0-.487-.092-.665-.733.068v.597h.825zm.717-.066.092.665.733-.068v-.597h-.825zm0-5.723h.824v-.589l-.719-.076-.107.664zm-.717-.076h-.824v.589l.719.076.107-.664zm0 .183h5.096v-1.338h-5.096v1.338zm5.096 0a.552.552 0 0 1-.334-.132l.001.001c-.145-.122-.145-.246-.145-.247h1.65a.868.868 0 0 0-.319-.684c-.266-.223-.603-.276-.853-.276v1.338zm-.479-.378v1.245h1.65v-1.245h-1.65zm.825.576h-.601v1.338h.601v-1.338zm.223.626-.081-1.021-1.647.086.081 1.021 1.648-.086zm-.905-1.648h-3.119v1.338h3.119v-1.338zm-3.945.67v2.595h1.65v-2.595h-1.65zm.826 3.264h3.281v-1.338h-3.281v1.338zm2.456-.669v.514h1.65v-.514h-1.65zm.824-.155h-3.28v1.338h3.281v-1.338zm-4.106.669v2.708h1.65v-2.707h-1.65zm.826 3.378h3.223V29.71h-3.223v1.338zm4.046-.619.092-.993-1.646-.101-.092.993 1.646.101zm-.73-.374h.601v-1.338h-.601v1.338zm-.225-.669v1.208h1.65v-1.208h-1.65zm0 1.208c0-.007.003-.134.152-.256a.537.537 0 0 1 .314-.123h.001v1.338c.246 0 .583-.05.852-.269a.866.866 0 0 0 .331-.681v-.01.001h-1.65zm.467-.378h-5.2v1.338h5.2v-1.338zm-4.373.669v-.488h-1.651v.487h1.65zm-.733.177.716-.066-.184-1.329-.718.065.186 1.33zm1.449-.731v-5.723h-1.65v5.723h1.65zm-.72-6.387-.717-.075-.211 1.328.717.075.211-1.328zm.003.588v-.487h-1.65v.487h1.65zm10.901.404-.368.598.79.32.339-.661-.761-.257zm-3.269-.141.531.512.002-.001-.533-.511zm0 1.678zm1.062.552-.323.615.012.004.311-.62zm1.237.44-.352.605.006.002.346-.607zm1.063.675-.641.421.005.005.636-.427zm-.288 2.398.519.52.006-.004-.525-.516zm-3.733-.02-.542.504.006.005.536-.509zm-.959-1.405-.194-.65-.785.155.173.638.806-.143zm.809-.159.799-.167-.204-.639-.79.155.195.651zm3.223 1.162-.543-.504-.008.007.552.497zm-.381-1.968.412-.58-.008-.003-.404.583zm-.82-.318-.33.614.009.002.008.003.313-.619zm-.912-.337-.378.595.012.005.012.004.354-.604zm-.833-.412-.495.535.01.006.485-.541zm-.601-.59.735-.305-.734.305zm.474-2.118.51.527.002-.001-.512-.526zm4.217 0 .762.258.307-.599-.728-.268-.341.609zm.081-.036c-.807-.327-1.59-.521-2.333-.521v1.338c.398 0 .921.107 1.595.379l.737-1.197zm-2.333-.52c-.68 0-1.335.122-1.84.467l1.067 1.022c.097-.067.312-.151.773-.151v-1.338zm-1.838.466c-.504.344-.733.817-.733 1.336h1.651c0-.18.064-.257.145-.312l-1.064-1.024zm-.733 1.336c0 .517.231.979.697 1.338l1.135-.972a.422.422 0 0 1-.182-.346l.001-.022v.001h-1.65zm.697 1.339c.372.286.812.512 1.307.683l.647-1.232a2.873 2.873 0 0 1-.826-.428l.007.005-1.136.972zm1.319.686c.402.133.801.275 1.196.427l.704-1.211a16.961 16.961 0 0 0-1.069-.394l-.207-.061-.623 1.239zm1.202.428c.299.113.553.273.768.489l1.283-.842a3.784 3.784 0 0 0-1.332-.853l-.026-.009-.693 1.214zm.773.494c.155.152.25.349.25.631h1.65c0-.553-.198-1.062-.627-1.484l-1.273.851zm.25.632c0 .395-.155.642-.428.824l1.05 1.032c.698-.467 1.028-1.113 1.028-1.856h-1.65zm-.422.82c-.307.202-.736.328-1.353.328v1.338c.909 0 1.729-.191 2.391-.626l-1.038-1.04zm-1.353.328c-.609 0-1.026-.129-1.324-.335l-1.072 1.017c.657.456 1.481.657 2.396.657v-1.338zm-1.318-.332c-.32-.225-.562-.557-.695-1.043l-1.612.286a3.1 3.1 0 0 0 1.213 1.76l.01.006 1.084-1.009zm-1.306-.25.809-.159-.39-1.3-.809.159.39 1.3zm-.184-.642c.18.569.479 1.072.953 1.435.493.378 1.108.556 1.786.556v-1.338c-.301 0-.497-.071-.652-.189-.173-.133-.356-.375-.491-.798l-1.598.335zm2.739 1.991c.682 0 1.333-.135 1.833-.498l-1.102-.996c-.1.073-.303.156-.731.156v1.338zm1.826-.494c.521-.369.744-.874.744-1.422h-1.65c0 .241-.084.347-.18.415l1.086 1.007zm.744-1.421c0-.728-.5-1.276-1.257-1.629l-.824 1.161c.368.171.431.323.431.468h1.65zm-1.263-1.632a8.263 8.263 0 0 0-.847-.336l-.065-.019-.627 1.238c.273.091.516.186.729.283l.81-1.167zm-.896-.35a32.91 32.91 0 0 1-.888-.328l-.708 1.208c.316.122.628.238.937.346l.659-1.227zm-.866-.319a5.743 5.743 0 0 1-.749-.373l.027.015-.971 1.082c.291.172.605.327.941.466l.752-1.191zm-.713-.352a1.098 1.098 0 0 1-.359-.355l-.003-.005-1.469.611c.206.325.485.603.84.819l.991-1.071zm-.362-.359a.963.963 0 0 1-.141-.506l.001-.033v.002h-1.65c0 .407.099.796.322 1.148l1.469-.611zm-.141-.538c0-.375.147-.593.39-.748l-1.02-1.052c-.698.445-1.02 1.076-1.02 1.8h1.65zm.392-.749c.301-.194.721-.315 1.325-.315v-1.338c-.889 0-1.694.184-2.349.603l1.024 1.05zm1.325-.315c.616 0 1.293.124 2.039.399l.683-1.219c-.917-.337-1.827-.519-2.721-.519v1.338zm1.619-.468-.289.562 1.522.514.29-.562-1.524-.514zm7.671 1.494v.669h.824v-.669h-.824zm-.602 0-.824.049.055.621h.769v-.669zm-.093-1.049.824-.047-.055-.621h-.769v.669zm-1.848 0v-.669h-.825v.669h.824zm0 5.77h-.825v.62l.761.049.064-.668zm1.04.066h.825v-.62l-.761-.047-.064.667zm0 .487v.669h.825v-.669h-.824zm-3.005 0h-.824v.669h.824v-.669zm0-.487-.064-.667-.761.049v.619h.825zm1.041-.066.064.667.761-.049v-.619h-.825zm0-5.77h.824v-.669h-.824v.669zm-1.849 0v-.669h-.768l-.054.621.822.049zm-.092 1.049v.669h.768l.055-.621-.823-.049zm-.602 0h-.824v.669h.824v-.669zm.359-.895h5.292v-1.338h-5.292v1.338zm5.292 0a.538.538 0 0 1-.316-.124l.001.001c-.149-.121-.152-.249-.152-.255h1.65v-.011a.866.866 0 0 0-.329-.679l-.002-.001c-.27-.218-.606-.269-.853-.269v1.338zm-.468-.378v1.273h1.65v-1.273h-1.65zm.826.604h-.601v1.338h.601v-1.338zm.223.621-.093-1.049-1.646.096.092 1.048 1.646-.095zm-.917-1.671h-1.848v1.338h1.848v-1.338zm-2.673.67v5.771h1.65v-5.77h-1.65zm.761 6.438 1.039.065.128-1.334-1.039-.066-.128 1.334zm.278-.602v.487h1.65v-.487H42.55zm.826-.182h-3.004v1.338h3.004v-1.338zm-2.178.669v-.487h-1.652v.487h1.651zm-.763.18 1.041-.066-.128-1.334-1.041.066.128 1.334zm1.802-.733v-5.77h-1.65v5.77h1.65zm-.825-6.439h-1.849v1.338h1.849v-1.338zm-2.672.621-.093 1.049 1.647.095.092-1.048-1.646-.096zm.731.428h-.601v1.338h.601v-1.338zm.224.669v-1.273h-1.65v1.273h1.651zm0-1.273c0 .006-.002.134-.151.255a.54.54 0 0 1-.314.123h-.001v-1.338c-.247 0-.584.05-.852.269a.864.864 0 0 0-.332.681v.011-.001h1.651zm6.241-.291v-.669h-.825v.669h.824zm5.442 1.536v.669h.824v-.669h-.824zm-.601 0-.824.044.05.626h.774v-.669zm-.08-1.021.824-.043-.05-.626h-.774v.669zm-3.12 0v-.669h-.825v.669h.824zm0 2.594h-.825v.669h.824v-.669zm3.281 0h.826v-.669h-.826v.669zm0 .516v.669h.826v-.669h-.826zm-3.281 0v-.669h-.825v.669h.824zm0 2.708h-.825v.669h.824v-.669zm3.224 0v.669h.766l.057-.619-.824-.05zm.092-.993v-.669h-.765l-.058.619.824.05zm.601 0h.824v-.669h-.824v.669zm-5.558 1.498h-.825v.669h.824v-.669zm0-.487-.093-.665-.732.068v.597h.824zm.717-.066.092.665.733-.068v-.597h-.825zm0-5.723h.824v-.589l-.72-.076-.105.664zm-.717-.076h-.824v.589l.719.076.106-.664zm0 .183h5.096v-1.338h-5.095v1.338zm5.095 0a.55.55 0 0 1-.333-.132l.001.001c-.145-.122-.145-.246-.145-.247h1.65a.866.866 0 0 0-.32-.684c-.265-.223-.602-.276-.852-.276v1.338zm-.478-.378v1.245h1.65v-1.245h-1.65zm.825.576h-.6v1.338h.601v-1.338zm.222.626-.081-1.021-1.648.086.081 1.021 1.647-.086zm-.903-1.648h-3.12v1.338h3.12v-1.338zm-3.945.67v2.595h1.65v-2.595h-1.65zm.824 3.264h3.282v-1.338h-3.281v1.338zm2.457-.669v.514h1.65v-.514h-1.651zm.825-.155h-3.281v1.338h3.281v-1.338zm-4.106.669v2.708h1.65v-2.707h-1.65zm.824 3.378h3.224V29.71h-3.223v1.338zm4.048-.619.092-.993-1.646-.101-.093.993 1.647.101zm-.731-.374h.601v-1.338h-.601v1.338zm-.224-.669v1.208h1.65v-1.208h-1.651zm0 1.208c0-.007.002-.134.152-.256a.54.54 0 0 1 .314-.123h.001v1.338c.246 0 .582-.05.851-.269a.864.864 0 0 0 .332-.681v-.01h-1.651zm.467-.378h-5.2v1.338h5.199v-1.338zm-4.374.669v-.488h-1.65v.487h1.65zm-.733.177.718-.066-.186-1.329-.717.065.185 1.33zm1.449-.731v-5.723h-1.651v5.723h1.651zm-.72-6.387-.716-.075-.211 1.328.717.075.21-1.328zm.004.588v-.487h-1.65v.487h1.65zm8.729 3.007v-.669h-.825v.669h.824zm2.033-.374.592.467.007-.006-.598-.462zm-2.703-2.604v-.669h-.825v.669h.824zm0 5.77h-.825v.618l.758.049.067-.667zm1.005.066h.825v-.618l-.758-.049-.067.666zm0 .487v.669h.825v-.669h-.824zm-2.646 0h-.825v.669h.824v-.669zm0-.487-.093-.665-.732.068v.597h.824zm.717-.066.092.665.733-.068v-.597h-.825zm0-5.723h.824v-.589l-.719-.076-.105.664zm-.718-.076h-.824v.589l.719.076.106-.664zm0-.486v-.669h-.824v.669h.824zm5.004.524zm-.889 3.373-.237-.641-2.095.508 1.986.741.345-.608zm.831.702-.759.262.003.005.756-.267zm.901 1.687-.757.266.19.356.475.043.092-.665zm.728.065h.826v-.599l-.735-.066-.091.665zm0 .487v.669h.826v-.669h-.826zm-1.536-.215-.76.262.003.005.756-.267zm-1.006-1.92-.76.26v.001l.76-.262zm-.52-.553-.425.573.017.009.017.007.392-.589zm-1.202-.141h-.824v.669h.824v-.669zm0 .154h.683v-1.338h-.682v1.338zm.683 0c.733 0 1.434-.154 1.942-.577l-1.181-.935c-.092.078-.293.173-.761.173v1.338zm1.949-.582c.492-.419.679-.972.679-1.557h-1.651c0 .363-.112.541-.223.634l1.197.923zm.679-1.558c0-.591-.186-1.147-.672-1.571l-1.209.912c.116.101.23.288.23.659H58.8zm-.673-1.571c-.506-.442-1.212-.607-1.956-.607v1.338c.457 0 .653.098.747.18l1.209-.912zm-1.955-.607H54.82v1.338h1.352v-1.338zm-2.177.67v5.771h1.65v-5.77h-1.65zm.758 6.438 1.006.065.133-1.334-1.006-.065-.132 1.333zm.246-.602v.487h1.65v-.487h-1.65zm.826-.182H53.18v1.338h2.645v-1.338zm-1.821.669v-.487h-1.65v.487h1.65zm-.733.178.718-.066-.186-1.329-.717.065.185 1.33zm1.45-.731v-5.723H53.07v5.723h1.651zm-.72-6.387-.718-.075-.21 1.328.717.075.211-1.328zm.003.588v-.487h-1.65v.487h1.65zm-.825.183h2.992v-1.338h-2.993v1.338zm2.993 0c.751 0 1.189.149 1.447.345l1.127-.979c-.666-.503-1.568-.704-2.574-.704v1.338zm1.446.345c.253.191.431.493.431 1.009h1.65c0-.782-.284-1.479-.955-1.988l-1.127.979zm.432 1.008c0 .403-.107.665-.252.836-.138.165-.362.305-.742.398l.473 1.282c.674-.164 1.241-.463 1.631-.923.383-.454.54-1.002.54-1.591h-1.65zm-1.103 2.483a.72.72 0 0 1 .415.351l.002.004 1.52-.522c-.247-.473-.669-.834-1.247-1.049l-.689 1.216zm.42.361.901 1.686 1.515-.533-.902-1.685-1.514.532zm1.567 2.084.727.066.182-1.33-.727-.066-.182 1.33zm-.006-.599v.487h1.651v-.487h-1.651zm.825-.182h-1.12v1.338h1.12v-1.338zm-1.12 0a.434.434 0 0 1 .339.186l.001.001-1.513.533c.091.173.242.339.473.459.229.118.475.159.698.159v-1.338zm.343.192-1.006-1.92-1.519.524 1.005 1.92 1.52-.524zm-1.005-1.919c-.175-.337-.445-.688-.888-.881l-.783 1.178c-.027-.012-.018-.015.015.02a.928.928 0 0 1 .133.198l.002.005 1.52-.521zm-.855-.866c-.395-.192-.902-.236-1.372-.236v1.338c.186 0 .323.01.417.024.1.015.123.029.107.02l.849-1.147zm-1.372-.236h-.254v1.338h.254v-1.338zm.571.669v-.516h-1.65v.516h1.65z"/>
    </symbol>
    <symbol id="play" viewBox="0 0 32 32">
      <path fill="#dedede" style="fill:var(--color2, #dedede)" d="m24.3 15.56-11.733-8a.534.534 0 0 0-.834.44v16.002a.532.532 0 0 0 .835.437l-.002.001 11.733-8a.532.532 0 0 0 .001-.879l-.002-.001zm-11.5 7.43V9.01L23.054 16 12.8 22.99z"/>
      <path fill="#dedede" style="fill:var(--color2, #dedede)" d="M16 0C7.178 0 0 7.178 0 16s7.178 16 16 16 16-7.178 16-16S24.822 0 16 0zm0 30.934C7.766 30.934 1.066 24.235 1.066 16S7.765 1.066 16 1.066c8.234 0 14.934 6.699 14.934 14.934S24.235 30.934 16 30.934z"/>
    </symbol>
    <symbol id="twitter" viewBox="0 0 32 32">
      <path fill="#fff" style="fill:var(--color1, #fff)" d="M16 0C7.222 0 .082 7.141.082 15.918c0 3.66 1.263 7.207 3.564 10.038a9.616 9.616 0 0 1-3.173 4.137l-.025.018a.741.741 0 0 0 .197 1.294l.005.002a11.042 11.042 0 0 0 9.058-.863c1.845.818 3.996 1.294 6.259 1.294h.036-.002c8.777 0 15.919-7.142 15.919-15.919S24.778.001 16.001.001zm0 30.356c-2.105 0-4.135-.444-6.033-1.319a.743.743 0 0 0-.704.045l.003-.002a9.44 9.44 0 0 1-5.037 1.439H4.22a9.52 9.52 0 0 1-1.775-.167 11.002 11.002 0 0 0 2.719-4.222l.024-.077a.739.739 0 0 0-.139-.727l.001.001a14.36 14.36 0 0 1-3.488-9.409v-.001c0-7.961 6.476-14.436 14.436-14.436 7.961 0 14.438 6.476 14.438 14.436S23.96 30.355 15.999 30.355z"/>
      <path fill="#fff" style="fill:var(--color1, #fff)" d="M25.015 10.082c.057-.128.107-.26.15-.393a.74.74 0 0 0-1.081-.866l.003-.002a6.095 6.095 0 0 1-1.573.654l-.044.01a4.25 4.25 0 0 0-2.764-1.015c-2.313 0-4.199 1.847-4.222 4.126a9.238 9.238 0 0 1-5.766-3.215l-.012-.015a.74.74 0 0 0-1.205.092l-.002.003a4.078 4.078 0 0 0-.575 2.102c0 .638.145 1.242.403 1.781l-.011-.025a.742.742 0 0 0-.42.667v.044c0 1.178.505 2.265 1.329 3.033a.729.729 0 0 0-.071.622l-.002-.005a4.204 4.204 0 0 0 2.023 2.396l.023.011a6.227 6.227 0 0 1-2.397.471h-.018.001c-.249 0-.5-.015-.745-.044a.741.741 0 0 0-.483 1.36l.003.002a10.631 10.631 0 0 0 5.726 1.655h.007c4.002 0 6.509-1.862 7.908-3.425 1.742-1.945 2.74-4.521 2.74-7.069v-.08a7.786 7.786 0 0 0 1.584-1.697l.017-.026a.74.74 0 0 0-.524-1.15h-.004zm-2.554 2.954c0 2.188-.861 4.404-2.364 6.081-1.197 1.337-3.349 2.931-6.804 2.931h-.003a9.28 9.28 0 0 1-2.425-.32l.065.015a7.753 7.753 0 0 0 2.651-1.34l-.017.013a.74.74 0 0 0-.438-1.326h-.001a2.759 2.759 0 0 1-1.982-.883l-.002-.002c.163-.024.324-.058.483-.1a.74.74 0 0 0-.043-1.441l-.005-.001a2.747 2.747 0 0 1-1.965-1.552l-.007-.017c.194.033.39.054.587.06h.023a.741.741 0 0 0 .412-1.357l-.003-.002a2.677 2.677 0 0 1-1.195-2.58l-.001.013a10.689 10.689 0 0 0 6.827 2.928l.026.001.036.001a.741.741 0 0 0 .721-.913l.001.005a2.67 2.67 0 0 1-.071-.612c0-1.482 1.23-2.689 2.742-2.689.759 0 1.489.311 2.005.853.134.142.324.23.534.23h.019-.001a.741.741 0 0 0 .415 1.021l.005.002a.74.74 0 0 0-.23.573v-.002c.006.136.009.273.008.409z"/>
    </symbol>
    <symbol id="youtube" viewBox="0 0 32 32">
      <path fill="#fff" style="fill:var(--color1, #fff)" d="M23.858 0H8.136C3.65 0-.001 3.651-.001 8.139v15.722c0 4.488 3.65 8.139 8.137 8.139h15.722C28.348 32 32 28.349 32 23.861V8.139C32 3.651 28.348 0 23.858 0zm7.638 23.861c0 4.21-3.426 7.635-7.638 7.635H8.136c-4.208 0-7.633-3.424-7.633-7.635V8.139c0-4.21 3.424-7.635 7.632-7.635h15.722c4.212 0 7.638 3.425 7.638 7.635v15.722z"/>
      <path fill="#fff" style="fill:var(--color1, #fff)" d="M30.248 15.998a.252.252 0 0 0-.252.252v7.056c0 3.627-3.063 6.69-6.69 6.69H8.692c-3.626 0-6.689-3.064-6.689-6.69V8.693c0-3.626 3.063-6.69 6.689-6.69h14.556a.252.252 0 0 0 0-.504H8.692c-3.899 0-7.193 3.294-7.193 7.194v14.613c0 3.899 3.294 7.194 7.193 7.194h14.614c3.9 0 7.194-3.294 7.194-7.194v-7.057a.252.252 0 0 0-.252-.252z"/>
      <path fill="#fff" style="fill:var(--color1, #fff)" d="M28.334 3.666C27.018 2.35 24.94 1.5 23.04 1.5a.252.252 0 0 0 0 .504c1.774 0 3.712.792 4.938 2.018a.251.251 0 0 0 .429-.177v-.002a.251.251 0 0 0-.074-.178zm1.914 6.832a.252.252 0 0 0-.252.252v3.75a.252.252 0 0 0 .504 0v-3.75a.252.252 0 0 0-.252-.252zm-10.76 5.2a.25.25 0 0 0-.343-.102l.001-.001-4.937 2.667-.002-4.91 1.672.91a.253.253 0 0 0 .316-.38v.001a.275.275 0 0 0-.074-.062l-.001-.001-2.044-1.112a.253.253 0 0 0-.373.221l.002 5.757v.001a.252.252 0 0 0 .373.221l-.001.001 5.308-2.868a.25.25 0 0 0 .102-.343l.001.001z"/>
      <path fill="#fff" style="fill:var(--color1, #fff)" d="M25.833 11.893c-.007-.062-.177-1.512-.814-2.186-.752-.818-1.58-.906-2.024-.954l-.11-.011c-2.73-.206-6.851-.243-6.906-.243-.042 0-4.154.038-6.892.244l-.078.008c-.412.046-1.27.142-2.032.971-.638.674-.817 2.115-.825 2.184A42.31 42.31 0 0 0 6 15.245v1.554c0 1.652.15 3.323.152 3.342.006.062.16 1.506.798 2.178.682.745 1.54.853 2.052.917.096.012.182.022.275.039 1.566.156 6.493.206 6.702.208h.003c.041 0 4.166-.01 6.909-.216l.123-.013c.438-.046 1.254-.13 1.987-.932.638-.674.824-2.114.832-2.182.002-.016.168-1.689.168-3.342v-1.554a39.04 39.04 0 0 0-.168-3.354zm-.336 4.907c0 1.627-.163 3.275-.165 3.286-.046.37-.261 1.43-.7 1.894-.608.664-1.273.732-1.671.774l-.122.014c-2.694.202-6.763.213-6.858.213-.113-.001-5.121-.052-6.631-.202-.08-.016-.176-.028-.286-.042-.472-.059-1.186-.149-1.746-.76-.522-.552-.665-1.873-.666-1.883a41.612 41.612 0 0 1-.15-3.294v-1.554c0-1.627.148-3.278.149-3.288.044-.37.254-1.43.693-1.893.636-.693 1.314-.768 1.72-.813l.07-.008c2.71-.205 6.806-.242 6.853-.242.042 0 4.146.037 6.848.24l.105.012c.406.043 1.085.114 1.71.796.523.552.68 1.884.681 1.894.002.016.166 1.675.166 3.301v1.554z"/>
    </symbol>
  </defs>
</svg>
